<?xml version="1.0" standalone="no"?>
<!DOCTYPE svg PUBLIC "-//W3C//DTD SVG 20010904//EN"
 "http://www.w3.org/TR/2001/REC-SVG-20010904/DTD/svg10.dtd">
<svg version="1.0" xmlns="http://www.w3.org/2000/svg"
 width="512.000000pt" height="512.000000pt" viewBox="0 0 512.000000 512.000000"
 preserveAspectRatio="xMidYMid meet">
<metadata>
Created by potrace 1.11, written by Peter Selinger 2001-2013
</metadata>
<g transform="translate(0.000000,512.000000) scale(0.100000,-0.100000)"
fill="#000000" stroke="none">
<path d="M0 4105 c0 -558 2 -1015 5 -1015 4 0 19 7 35 15 l28 15 10 -47 c6
-26 8 -51 6 -55 -3 -4 -23 -13 -45 -19 -40 -12 -40 -13 -37 -57 3 -43 5 -46
58 -73 65 -33 67 -40 70 -169 1 -76 3 -90 12 -70 6 14 8 62 5 113 -3 48 -5 87
-4 87 1 0 27 -7 57 -15 30 -8 79 -15 108 -15 28 0 52 -1 52 -3 0 -2 -11 -36
-25 -76 -32 -96 -38 -151 -26 -236 6 -38 8 -71 6 -73 -2 -2 -27 4 -55 13 -61
20 -59 22 -141 -91 -32 -45 -73 -94 -90 -108 -21 -18 -29 -33 -27 -48 3 -21 8
-18 56 30 28 28 52 58 52 66 0 8 24 40 54 72 l55 58 58 -17 c103 -29 112 -29
143 -7 15 11 33 20 40 20 7 0 5 6 -4 16 -9 8 -16 18 -16 22 0 4 23 31 50 60
40 44 54 53 77 50 27 -3 28 -5 28 -63 0 -55 -2 -60 -21 -57 -26 3 -91 -33
-104 -58 -6 -10 -10 -28 -10 -39 0 -25 -9 -26 -36 -6 -22 17 -47 19 -72 6 -9
-5 -32 -15 -50 -21 -26 -10 -32 -18 -32 -41 0 -35 101 -233 151 -296 112 -141
155 -184 182 -179 12 3 25 5 29 5 4 1 17 21 29 46 12 25 28 45 36 45 14 0 17
29 13 111 -1 31 4 51 14 62 12 12 16 37 16 104 0 106 -20 182 -58 220 -20 20
-26 36 -26 63 1 36 28 100 42 100 4 0 16 -33 26 -72 10 -40 34 -104 53 -143
l35 -70 -17 -187 c-18 -201 -14 -297 13 -325 20 -20 41 -59 53 -96 12 -42 -9
-149 -34 -168 -14 -12 -18 -22 -13 -35 4 -11 7 -131 6 -269 -2 -473 32 -716
148 -1073 21 -65 42 -112 49 -112 18 0 17 4 -18 106 -16 49 -43 138 -59 198
l-29 110 27 44 c15 25 36 50 47 56 26 15 50 38 50 48 0 5 5 12 11 16 6 4 14
17 18 30 4 12 12 20 17 16 6 -3 13 4 16 15 l5 21 18 -20 c9 -11 27 -20 39 -20
14 0 20 -4 15 -12 -5 -8 0 -9 14 -6 12 4 20 2 16 -3 -3 -5 8 -14 23 -20 15 -7
52 -22 81 -35 29 -13 60 -24 70 -24 27 0 165 -82 253 -150 42 -33 81 -60 86
-60 4 0 19 -12 32 -25 13 -14 32 -25 43 -25 10 0 17 -4 14 -8 -3 -5 10 -14 29
-20 18 -7 36 -19 39 -27 3 -8 12 -12 19 -9 8 3 17 -2 20 -10 4 -9 13 -16 20
-16 8 0 27 -11 43 -25 16 -14 35 -23 42 -20 7 3 23 -5 36 -18 12 -12 25 -23
29 -25 34 -13 77 -37 77 -44 0 -5 4 -6 10 -3 6 3 10 -1 10 -10 0 -11 5 -15 15
-11 8 3 15 1 15 -5 0 -6 33 -9 85 -8 47 1 85 4 85 8 0 12 60 32 72 25 7 -4 10
-4 6 1 -11 11 128 66 149 59 13 -4 14 -3 6 3 -9 6 3 15 40 28 28 10 58 22 65
28 6 5 12 6 12 1 0 -5 4 -3 9 4 5 9 15 2 34 -25 14 -21 36 -50 49 -65 13 -14
31 -36 40 -47 14 -17 29 -21 73 -21 66 0 67 -3 -25 101 -36 40 -64 78 -64 86
1 7 -2 10 -7 7 -5 -3 -9 -2 -9 3 0 4 33 23 73 42 39 19 103 54 142 78 38 24
73 43 78 43 5 0 15 6 23 14 8 8 23 12 36 9 26 -6 215 -191 210 -205 -1 -5 2
-7 8 -3 13 8 51 -29 47 -46 -2 -8 -2 -11 0 -6 3 4 10 7 16 7 6 0 -14 -26 -46
-58 -31 -32 -57 -61 -57 -65 0 -18 39 -4 66 24 71 75 134 78 263 14 50 -25
101 -45 113 -44 15 0 -8 16 -64 44 -47 25 -89 48 -92 53 -3 5 8 23 25 41 23
25 34 31 52 25 12 -4 24 -9 27 -13 3 -3 11 -7 17 -8 7 -2 41 -16 76 -33 35
-16 74 -30 86 -30 31 0 45 41 66 185 17 119 33 176 54 189 6 4 11 17 11 29 0
18 2 19 10 7 8 -13 11 -11 16 7 6 22 34 33 34 14 0 -5 9 -11 20 -14 24 -6 25
-26 9 -142 -18 -135 -49 -286 -64 -316 -20 -37 -19 -39 13 -39 19 0 46 17 92
60 140 129 348 272 401 276 10 1 30 11 47 23 35 25 46 27 38 6 -9 -23 2 -18
37 18 18 17 41 38 52 45 20 13 20 13 0 7 -39 -12 2 16 86 60 l82 42 3 61 c1
34 8 70 14 81 11 22 15 87 7 136 -3 17 1 41 8 55 8 14 20 45 29 70 24 72 80
203 104 244 20 34 22 50 22 200 l0 164 -82 21 c-77 19 -74 20 15 6 29 -5 28
-4 -8 9 -34 12 -36 14 -14 15 14 1 40 8 57 17 28 13 32 21 32 55 0 39 0 39
-40 39 -54 0 -56 27 -2 33 20 2 14 3 -15 1 -55 -3 -98 16 -73 31 9 5 15 4 18
-3 2 -7 25 -12 58 -12 l54 0 0 1680 0 1680 -117 0 c-111 -1 -116 -2 -86 -15
47 -20 123 -74 123 -87 0 -5 -7 -7 -16 -4 -8 3 -12 2 -9 -4 3 -6 -1 -10 -10
-10 -10 0 -13 -5 -9 -12 4 -6 3 -8 -3 -5 -18 12 -187 -67 -223 -103 -17 -17
-90 -70 -97 -70 -4 0 -30 -16 -57 -35 -27 -19 -55 -35 -62 -35 -7 0 -26 -13
-42 -29 -16 -16 -45 -38 -65 -49 -20 -10 -49 -30 -65 -42 -17 -13 -73 -47
-125 -74 -101 -54 -118 -71 -407 -406 -74 -86 -91 -103 -97 -96 -6 6 8 26 122
181 189 256 234 324 258 397 4 10 31 30 61 45 30 15 52 31 49 36 -3 6 -1 7 6
3 15 -10 49 26 76 79 11 22 22 42 25 45 3 3 12 19 20 35 23 47 142 230 152
233 47 19 -135 22 -1328 22 -1214 0 -1336 -1 -1330 -16 3 -9 6 -20 6 -25 0 -5
22 -20 50 -34 74 -38 87 -73 45 -123 -15 -18 -25 -42 -25 -60 0 -34 -14 -50
-26 -30 -5 7 -11 47 -14 88 -5 71 -6 75 -35 89 -46 21 -64 41 -71 77 l-6 34
-163 0 c-154 0 -164 -1 -170 -20 -3 -10 1 -29 9 -42 18 -28 43 -101 55 -160
10 -46 48 -189 81 -303 11 -38 22 -83 24 -100 3 -16 8 -46 12 -65 7 -40 79
-175 126 -237 17 -24 29 -45 26 -48 -7 -7 -381 363 -396 391 -6 12 -22 64 -36
116 -13 52 -31 109 -39 128 -8 19 -21 55 -27 80 -7 25 -14 51 -16 58 -3 10
-10 9 -33 -3 -39 -20 -37 -20 -51 18 -16 43 -34 81 -40 87 -3 3 -23 26 -44 53
l-38 47 -534 0 -534 0 0 -1015z m1052 348 c8 -10 20 -37 26 -59 7 -23 19 -44
27 -48 14 -5 55 -63 55 -78 0 -5 -8 -8 -17 -8 -20 0 -163 149 -163 171 0 37
46 52 72 22z m-562 -218 c6 3 10 -3 10 -14 0 -24 16 -36 24 -19 3 7 3 3 0 -9
-4 -16 -1 -23 10 -23 10 0 13 -6 9 -16 -3 -9 0 -20 8 -25 10 -6 10 -9 2 -9 -9
0 -13 -17 -13 -49 0 -54 -1 -55 -45 -65 -21 -5 -26 -4 -16 3 12 8 9 11 -12 16
-23 6 -27 12 -27 44 l-1 36 -15 -25 c-14 -24 -15 -24 -9 20 4 35 3 40 -5 23
-10 -25 -26 -32 -17 -9 3 8 3 17 -1 21 -4 3 -7 20 -8 36 -1 16 -8 36 -15 45
-40 49 4 73 68 37 24 -13 48 -21 53 -18z m4120 -376 c0 -12 -105 -143 -138
-172 -16 -15 -29 -17 -66 -12 -25 4 -46 11 -46 15 0 23 121 110 152 110 7 0
29 16 48 35 37 36 50 42 50 24z m-3075 -690 c-9 -24 -27 -88 -40 -143 -14 -54
-26 -101 -29 -103 -2 -3 -17 16 -32 42 l-27 47 20 41 c24 49 112 171 119 165
2 -3 -3 -25 -11 -49z m-149 -13 c-8 -37 -13 -43 -24 -33 -12 10 -13 5 -7 -30
12 -73 5 -79 -73 -75 -56 3 -77 0 -111 -18 -180 -91 -246 -310 -185 -609 46
-225 165 -373 341 -426 70 -21 87 -18 25 5 -169 61 -280 192 -331 391 -44 171
-34 328 30 457 48 98 165 178 250 170 l34 -3 0 -62 c0 -33 3 -64 6 -68 4 -3
15 15 25 42 9 26 20 51 23 55 10 12 27 -5 48 -47 18 -35 19 -49 11 -120 -4
-44 -14 -96 -20 -115 -15 -43 -14 -185 1 -224 l12 -29 50 85 c28 46 61 98 75
114 l24 29 20 -24 c27 -31 25 -38 -13 -50 -38 -13 -63 -49 -71 -106 l-7 -40
25 51 c13 28 34 58 46 67 20 14 25 14 46 0 40 -26 84 -102 84 -145 0 -21 5
-38 10 -38 6 0 10 10 10 21 0 18 6 14 35 -22 19 -24 45 -68 57 -96 37 -85 60
-51 32 47 -26 89 -25 87 -33 67 -6 -18 -7 -18 -23 0 -9 10 -44 60 -77 111 -68
103 -68 103 -4 163 154 144 305 207 565 235 104 11 169 23 203 38 109 46 183
94 252 162 l72 70 12 -50 c7 -28 12 -86 12 -131 0 -64 -4 -89 -22 -123 -60
-117 -148 -232 -250 -329 -36 -34 -63 -63 -60 -63 58 -2 256 67 363 127 l58
33 -7 -27 c-11 -43 -94 -209 -119 -236 -24 -26 -45 -34 -306 -129 -229 -83
-258 -87 -342 -53 -50 20 19 -100 76 -132 35 -20 41 -15 15 15 -66 73 -69 67
46 70 103 2 103 2 97 -20 -5 -20 -1 -19 45 14 78 56 313 166 508 238 151 55
365 124 413 133 42 8 34 -6 -25 -43 -24 -16 -40 -31 -34 -34 10 -7 129 16 175
34 16 6 30 9 32 7 7 -6 -48 -112 -81 -157 -19 -26 -35 -50 -35 -53 0 -7 76 23
172 66 l78 36 15 -52 c42 -141 42 -319 0 -452 -57 -186 -321 -317 -605 -302
-115 6 -196 27 -317 83 -90 41 -98 42 -53 9 48 -36 168 -83 257 -101 93 -20
277 -15 368 10 90 24 254 108 306 158 26 24 57 63 69 88 74 146 80 372 14 516
-13 29 -24 56 -23 61 0 8 82 71 103 79 6 2 47 -66 94 -156 73 -142 82 -165 82
-214 0 -62 -20 -166 -48 -246 -21 -61 -79 -160 -93 -160 -5 0 -9 -4 -9 -10 0
-15 21 -12 39 5 9 8 41 32 71 52 30 20 80 56 110 81 l55 45 3 -49 c4 -59 -15
-242 -33 -321 -7 -32 -13 -59 -11 -60 5 -5 121 89 135 110 12 18 21 23 36 17
11 -4 29 -4 40 0 18 7 17 9 -13 21 l-32 14 37 57 c25 38 48 62 74 74 70 31 84
55 85 147 1 121 53 237 105 237 19 0 43 -69 59 -170 14 -92 14 -92 -30 -143
-22 -25 -40 -48 -40 -52 0 -12 39 22 71 61 30 38 31 41 25 114 -7 79 -25 161
-45 198 -8 15 -21 22 -40 22 l-28 0 8 56 c4 31 9 58 11 60 2 2 20 -1 39 -6 63
-17 75 -41 108 -205 43 -208 42 -230 -11 -291 -91 -104 -183 -181 -357 -299
-154 -104 -168 -110 -248 -95 -35 7 -66 16 -69 21 -3 5 2 19 10 31 9 12 16 26
16 30 0 23 -24 -3 -100 -104 -93 -125 -261 -299 -385 -398 -261 -208 -583
-368 -917 -454 -190 -49 -264 -60 -423 -60 -256 -1 -309 24 -596 281 -301 270
-533 607 -606 880 -25 96 -26 109 -33 513 -6 358 -10 433 -29 549 -14 84 -21
166 -19 219 l3 84 80 30 c160 59 374 174 415 223 22 26 27 16 16 -29z m-766
-6 c0 -5 -4 -10 -10 -10 -5 0 -10 5 -10 10 0 6 5 10 10 10 6 0 10 -4 10 -10z
m-340 -30 c15 -5 18 -8 8 -9 -9 -1 -47 -17 -84 -36 -37 -19 -69 -35 -71 -35
-2 0 -8 10 -13 23 -8 21 -9 20 -10 -8 -2 -28 -3 -27 -11 10 -15 61 -10 65 78
64 43 -1 89 -5 103 -9z m205 -30 c-3 -5 -14 -10 -23 -9 -14 0 -13 2 3 9 27 11
27 11 20 0z m-334 -119 c7 11 9 11 9 -2 0 -26 -26 -31 -27 -5 0 11 1 15 4 7 5
-11 7 -11 14 0z m46 -7 c-3 -3 -12 -4 -19 -1 -8 3 -5 6 6 6 11 1 17 -2 13 -5z
m3318 -86 c9 -29 20 -89 22 -133 l5 -80 -42 -57 c-27 -39 -50 -60 -68 -64 -53
-11 -257 -63 -277 -70 -12 -4 1 15 32 47 81 84 189 226 246 321 29 49 55 88
58 88 3 0 14 -24 24 -52z m-2975 28 c0 -3 -4 -8 -10 -11 -5 -3 -10 -1 -10 4 0
6 5 11 10 11 6 0 10 -2 10 -4z m-30 -36 c0 -5 -2 -10 -4 -10 -3 0 -8 5 -11 10
-3 6 -1 10 4 10 6 0 11 -4 11 -10z m204 -105 c-4 -8 -11 -15 -16 -15 -6 0 -5
6 2 15 7 8 14 15 16 15 2 0 1 -7 -2 -15z m-269 -35 c3 -5 1 -10 -4 -10 -6 0
-11 5 -11 10 0 6 2 10 4 10 3 0 8 -4 11 -10z m270 0 c-3 -5 -12 -10 -18 -10
-7 0 -6 4 3 10 19 12 23 12 15 0z m-110 -40 c4 -16 4 -44 0 -60 -6 -29 -14
-34 -69 -42 -18 -3 -88 -78 -141 -152 -11 -15 -29 -28 -40 -29 -17 -2 -20 3
-18 37 4 53 41 113 113 180 53 49 120 94 142 96 3 0 9 -13 13 -30z m255 -110
c11 -74 23 -179 27 -234 l6 -101 -21 18 c-11 10 -38 45 -60 78 -40 59 -64 137
-77 246 l-6 52 53 40 c29 22 54 39 55 38 1 -2 11 -63 23 -137z m-425 120 c-3
-5 -11 -10 -16 -10 -6 0 -7 5 -4 10 3 6 11 10 16 10 6 0 7 -4 4 -10z m260 0
c3 -5 1 -10 -4 -10 -6 0 -11 5 -11 10 0 6 2 10 4 10 3 0 8 -4 11 -10z m-303
-38 c-7 -2 -12 -10 -12 -18 0 -8 -4 -14 -9 -14 -4 0 -6 11 -4 24 4 18 10 23
21 18 10 -4 12 -7 4 -10z m1252 -16 c-6 -16 -8 -17 -16 -2 -11 19 0 42 13 29
6 -6 7 -18 3 -27z m-1125 -548 c10 -30 9 -31 -4 -14 -8 11 -15 26 -15 33 0 22
8 14 19 -19z m4507 -237 c0 -11 -5 -17 -13 -14 -10 4 -11 9 -2 19 15 18 15 18
15 -5z m-654 -66 c-6 -39 -17 -51 -53 -64 l-30 -10 38 71 c29 56 38 67 44 52
4 -11 4 -32 1 -49z m593 -33 c-3 -3 -11 0 -18 7 -9 10 -8 11 6 5 10 -3 15 -9
12 -12z m0 -52 c-5 -7 -55 -1 -55 7 0 2 5 14 11 26 l12 21 18 -23 c11 -13 17
-27 14 -31z m-4045 -195 c6 -55 11 -105 12 -110 1 -6 -2 -24 -6 -40 -5 -22 -4
-26 4 -15 7 12 10 8 10 -17 0 -18 4 -33 9 -33 17 0 18 -48 0 -71 -10 -13 -16
-26 -14 -30 3 -3 -7 -17 -20 -29 -14 -13 -25 -29 -25 -35 0 -7 -10 -20 -21
-31 l-22 -19 7 175 c7 174 17 259 39 334 14 47 14 46 27 -79z m3920 30 c0 -2
-10 -10 -22 -16 -21 -11 -22 -11 -9 4 13 16 31 23 31 12z m-3761 -387 c5 -13
23 -38 40 -57 17 -19 31 -39 31 -45 0 -6 25 -38 55 -71 30 -32 55 -60 55 -62
0 -2 8 -12 18 -22 35 -39 42 -51 42 -68 0 -15 2 -16 11 -3 9 12 10 11 6 -7 -3
-13 -2 -23 2 -23 3 0 19 -30 35 -66 21 -47 31 -62 38 -52 6 9 7 6 3 -9 -4 -16
0 -26 14 -35 12 -7 21 -19 21 -26 0 -7 4 -11 9 -8 5 4 7 -4 3 -16 -4 -17 -2
-20 12 -15 10 4 15 3 11 -3 -8 -13 -36 -9 -53 7 -7 7 -20 9 -29 6 -11 -4 -14
-2 -9 5 5 9 -33 40 -42 33 -1 -1 -22 14 -46 34 -24 19 -48 35 -54 35 -7 0 -21
8 -32 18 -11 9 -30 19 -43 22 -12 3 -29 20 -38 38 -9 17 -20 28 -24 24 -5 -4
-5 -2 -1 5 3 6 3 44 -1 85 -6 58 -8 67 -14 43 -5 -22 -7 -14 -8 33 -1 37 -5
61 -10 57 -11 -6 -20 36 -24 113 -3 54 7 68 22 30z m-99 -58 c12 -6 16 -17 13
-30 -3 -11 0 -26 6 -34 7 -8 14 -40 17 -71 2 -32 8 -65 13 -74 19 -34 21 -121
4 -156 -12 -25 -20 -32 -28 -25 -9 8 -11 3 -8 -17 4 -27 4 -28 -12 -8 -17 20
-17 20 -10 -2 3 -13 0 -34 -8 -50 -9 -16 -21 -42 -27 -60 -10 -26 -50 -76 -50
-62 0 2 -7 54 -15 114 -7 61 -17 171 -21 245 -6 130 -6 136 15 155 17 15 24
16 30 6 6 -10 10 -9 15 4 4 10 12 15 21 11 13 -5 14 -2 4 16 -10 18 -9 20 5
15 14 -6 16 -3 11 13 -7 22 -2 24 25 10z m3390 -232 c-12 -85 -18 -103 -78
-213 -36 -66 -69 -127 -73 -135 -6 -11 -8 -7 -9 12 0 63 149 452 167 434 3 -2
-1 -47 -7 -98z m-2781 -257 c119 -107 208 -168 295 -203 l81 -33 205 0 c198 0
206 -1 238 -23 17 -13 32 -29 32 -35 0 -7 -24 -70 -53 -142 -74 -182 -59 -181
-314 -28 -287 173 -386 235 -398 247 -52 56 -181 240 -215 306 l-23 44 39 -33
c22 -19 72 -64 113 -100z m-179 99 c0 -5 -2 -10 -4 -10 -3 0 -8 5 -11 10 -3 6
-1 10 4 10 6 0 11 -4 11 -10z m2753 -65 c-3 -9 -8 -14 -10 -11 -3 3 -2 9 2 15
9 16 15 13 8 -4z m-13 -41 c0 -8 -4 -12 -10 -9 -5 3 -10 10 -10 16 0 5 5 9 10
9 6 0 10 -7 10 -16z m-25 -25 c11 -17 -1 -21 -15 -4 -8 9 -8 15 -2 15 6 0 14
-5 17 -11z m-25 -24 c10 -12 10 -15 -2 -15 -8 0 -15 7 -15 15 0 8 1 15 2 15 2
0 8 -7 15 -15z m-2605 -5 c-3 -5 -1 -10 5 -10 6 0 8 -4 5 -10 -4 -6 -11 -5
-19 3 -10 9 -11 14 -2 19 15 10 18 10 11 -2z m2648 -10 c-3 -11 -9 -20 -14
-20 -14 0 -11 28 4 33 6 3 13 6 14 6 0 1 -1 -8 -4 -19z m-867 -95 c0 -14 -1
-25 -2 -25 0 0 -9 9 -19 20 -17 18 -17 20 -2 14 10 -3 17 -1 17 5 0 6 2 11 4
11 2 0 3 -11 2 -25z m84 -1 c0 -8 -4 -12 -10 -9 -5 3 -10 10 -10 16 0 5 5 9
10 9 6 0 10 -7 10 -16z m-1 -26 c14 -1 26 -9 29 -16 3 -9 -6 -12 -33 -9 -37 4
-55 19 -55 46 0 11 3 11 18 -2 9 -8 28 -17 41 -19z m-809 -8 c11 -6 31 -30 45
-53 30 -53 75 -97 75 -76 0 9 -7 24 -15 35 -8 10 -15 21 -15 25 0 6 188 -84
189 -91 1 -8 -92 -50 -111 -50 -18 0 -288 179 -288 190 0 4 19 12 43 17 58 14
56 14 77 3z m1970 -20 c14 -10 23 -20 20 -23 -11 -8 -67 -45 -104 -67 l-38
-23 12 24 c36 69 63 109 73 109 7 0 23 -9 37 -20z m-1083 -6 c3 -8 23 -22 44
-30 37 -15 54 -37 43 -55 -3 -5 6 -4 20 3 32 14 47 3 21 -16 -12 -9 -16 -21
-13 -39 3 -17 1 -24 -7 -21 -7 3 -15 -2 -18 -10 -5 -12 -23 1 -76 51 -39 37
-68 69 -66 72 3 2 12 -4 19 -15 12 -16 17 -17 28 -6 11 11 10 12 -4 7 -13 -5
-18 -2 -18 9 0 8 -11 18 -24 22 -35 8 -42 32 -8 26 15 -3 34 -10 42 -16 8 -6
6 -1 -4 12 -17 20 -17 22 -2 22 9 0 19 -7 23 -16z m520 -43 c9 -14 9 -38 1
-87 -19 -130 -46 -149 -141 -101 -49 25 -57 33 -51 51 6 18 69 86 81 86 7 0
63 64 63 71 0 13 36 -2 47 -20z m-1460 -63 c-3 -13 -13 -62 -22 -110 -14 -71
-21 -87 -38 -92 -12 -3 -23 -3 -26 -1 -6 7 26 120 51 177 21 49 44 66 35 26z
m1088 -18 c-3 -5 -11 -10 -16 -10 -6 0 -7 5 -4 10 3 6 11 10 16 10 6 0 7 -4 4
-10z"/>
<path d="M1600 2411 c-14 -27 -13 -56 4 -70 32 -27 68 28 46 69 -14 25 -36 26
-50 1z"/>
<path d="M1521 2323 c-1 -31 17 -74 41 -100 23 -24 91 -33 103 -13 4 6 -5 7
-23 4 -50 -10 -86 26 -116 116 -3 9 -5 7 -5 -7z"/>
<path d="M2880 2254 c-69 -63 -89 -178 -46 -270 17 -37 33 -55 59 -67 39 -19
83 -22 92 -7 4 6 -12 10 -40 10 -35 0 -52 6 -70 24 -46 46 -59 162 -26 239 35
81 99 107 175 70 39 -18 54 -47 66 -125 l8 -53 1 55 c2 97 -54 160 -141 160
-29 0 -47 -8 -78 -36z"/>
<path d="M2920 2121 c-15 -29 -12 -49 10 -71 23 -23 43 -18 58 16 17 35 0 74
-32 74 -15 0 -30 -8 -36 -19z"/>
<path d="M1418 1943 c7 -3 16 -2 19 1 4 3 -2 6 -13 5 -11 0 -14 -3 -6 -6z"/>
<path d="M1801 1520 c0 -8 4 -22 9 -30 12 -18 12 -2 0 25 -6 13 -9 15 -9 5z"/>
<path d="M1416 1497 c-54 -81 -47 -204 21 -412 58 -177 147 -311 257 -384 12
-8 -4 9 -35 37 -112 102 -160 209 -160 363 -1 94 13 173 31 184 16 10 38 -38
38 -82 1 -22 5 -49 11 -60 5 -10 21 -45 36 -78 36 -83 65 -118 148 -176 142
-102 317 -159 485 -160 51 -1 96 2 99 5 4 3 -18 6 -48 6 -185 0 -448 80 -522
158 -43 45 -34 73 28 89 109 28 182 27 321 -2 216 -46 346 -128 328 -208 -6
-27 -4 -28 17 -22 48 15 120 56 173 100 82 67 159 93 183 63 13 -16 15 -78 3
-78 -4 0 -6 -10 -2 -22 4 -16 2 -19 -8 -13 -9 6 -11 4 -5 -5 9 -14 -26 -48
-121 -116 -122 -87 -228 -122 -409 -133 l-120 -8 111 -1 c250 -4 490 111 631
302 70 95 60 153 -44 246 -88 78 -91 79 -296 90 -100 6 -227 17 -282 25 -158
24 -174 25 -115 10 87 -23 245 -44 380 -50 198 -9 202 -10 256 -61 57 -53 54
-58 -45 -85 -196 -51 -441 -63 -591 -30 -111 25 -272 82 -388 137 -76 35 -108
57 -168 118 -94 94 -143 191 -116 233 5 9 33 -5 96 -47 49 -33 122 -73 163
-90 116 -49 117 -46 2 12 -58 29 -139 77 -179 107 -90 65 -139 77 -164 38z"/>
<path d="M3300 1360 c0 -5 5 -10 10 -10 6 0 10 5 10 10 0 6 -4 10 -10 10 -5 0
-10 -4 -10 -10z"/>
<path d="M3140 1310 c0 -5 5 -10 10 -10 6 0 10 5 10 10 0 6 -4 10 -10 10 -5 0
-10 -4 -10 -10z"/>
<path d="M3400 1250 c0 -5 5 -10 10 -10 6 0 10 5 10 10 0 6 -4 10 -10 10 -5 0
-10 -4 -10 -10z"/>
<path d="M905 1189 c-11 -16 -1 -19 13 -3 7 8 8 14 3 14 -5 0 -13 -5 -16 -11z"/>
<path d="M1072 1060 c0 -14 2 -19 5 -12 2 6 2 18 0 25 -3 6 -5 1 -5 -13z"/>
<path d="M1101 1054 c0 -11 3 -14 6 -6 3 7 2 16 -1 19 -3 4 -6 -2 -5 -13z"/>
<path d="M1355 639 c-4 -6 -5 -12 -2 -15 2 -3 7 2 10 11 7 17 1 20 -8 4z"/>
<path d="M3490 236 c0 -2 7 -7 16 -10 8 -3 12 -2 9 4 -6 10 -25 14 -25 6z"/>
<path d="M108 2082 c-15 -2 -43 -18 -64 -37 -35 -32 -37 -36 -30 -81 3 -26 10
-52 15 -58 5 -6 20 -45 34 -86 15 -41 38 -106 52 -145 52 -142 107 -300 108
-312 0 -7 3 -13 7 -13 3 0 12 -17 19 -37 8 -21 19 -45 26 -53 6 -8 17 -37 23
-65 6 -27 20 -71 32 -97 22 -51 19 -50 104 -33 30 6 56 -13 56 -40 0 -14 5
-25 10 -25 12 0 13 51 1 82 -4 13 -16 50 -26 83 -9 33 -23 76 -30 95 -28 80
-36 110 -29 121 4 8 3 9 -4 5 -7 -4 -13 0 -14 11 -3 38 -27 122 -39 138 -4 6
-12 29 -18 50 -13 51 -87 264 -94 271 -3 3 -14 1 -25 -5 -29 -16 -34 -14 -30
12 2 14 11 23 25 25 21 3 21 5 8 40 -15 41 -44 102 -57 117 -5 6 -14 17 -21
25 -7 9 -23 14 -39 12z m288 -723 c10 -17 -23 -46 -37 -32 -7 7 -9 19 -6 27 7
18 33 21 43 5z"/>
<path d="M306 1903 c4 -16 29 -93 56 -173 27 -80 58 -173 69 -207 15 -49 26
-66 49 -78 34 -18 34 -16 19 -49 -18 -38 12 -111 50 -124 31 -11 46 -54 30
-84 -15 -28 -11 -54 25 -161 38 -113 60 -160 69 -150 4 3 7 -5 7 -18 0 -13 8
-34 18 -46 17 -22 17 -22 21 40 2 34 4 159 5 277 1 255 0 258 -109 420 -60 90
-298 380 -311 380 -2 0 -1 -12 2 -27z"/>
<path d="M117 1443 c-7 -12 18 -85 48 -138 l17 -30 -7 30 c-4 17 -13 44 -20
60 -7 17 -17 43 -22 60 -6 17 -12 24 -16 18z"/>
<path d="M5111 928 c0 -9 -4 -25 -7 -35 -5 -14 -4 -15 5 -7 7 7 11 22 8 35 -2
13 -5 16 -6 7z"/>
<path d="M5090 867 c0 -3 7 -20 15 -38 l14 -34 -3 35 c-2 19 -8 36 -15 38 -6
2 -11 2 -11 -1z"/>
<path d="M5100 605 c-10 -12 -10 -15 4 -15 9 0 16 7 16 15 0 8 -2 15 -4 15 -2
0 -9 -7 -16 -15z"/>
<path d="M1127 528 c6 -10 35 -10 51 0 8 5 -1 8 -22 8 -19 -1 -32 -4 -29 -8z"/>
<path d="M1125 468 c-8 -41 27 -158 54 -182 32 -29 61 -13 61 33 0 114 -98
240 -115 149z"/>
<path d="M1358 442 c-27 -45 -85 -222 -102 -312 -9 -47 -19 -95 -22 -108 -2
-12 0 -22 5 -22 6 0 13 17 16 38 17 100 59 255 91 335 36 90 41 119 12 69z"/>
<path d="M3295 270 c10 -11 20 -20 23 -20 3 0 -3 9 -13 20 -10 11 -20 20 -23
20 -3 0 3 -9 13 -20z"/>
<path d="M1042 258 c-16 -16 -15 -74 3 -136 17 -57 46 -82 71 -61 29 24 9 145
-32 190 -20 22 -26 23 -42 7z"/>
<path d="M0 108 l0 -108 117 0 117 0 -54 27 c-63 31 -130 94 -159 149 l-20 39
-1 -107z"/>
<path d="M5100 179 c-20 -47 -98 -121 -159 -152 l-55 -27 117 0 117 0 0 105
c0 58 -2 105 -4 105 -2 0 -9 -14 -16 -31z"/>
<path d="M1625 10 c-4 -6 17 -10 57 -10 44 0 59 3 48 10 -20 13 -97 13 -105 0z"/>
</g>
</svg>
